<?xml version="1.0" encoding="UTF-8" standalone="no"?>
<svg
   xmlns:dc="http://purl.org/dc/elements/1.1/"
   xmlns:cc="http://creativecommons.org/ns#"
   xmlns:rdf="http://www.w3.org/1999/02/22-rdf-syntax-ns#"
   xmlns:svg="http://www.w3.org/2000/svg"
   xmlns="http://www.w3.org/2000/svg"
   xmlns:sodipodi="http://sodipodi.sourceforge.net/DTD/sodipodi-0.dtd"
   xmlns:inkscape="http://www.inkscape.org/namespaces/inkscape"
   viewBox="0 0 200 30"
   height="30"
   width="200"
   xml:space="preserve"
   version="1.1"
   id="svg2"
   inkscape:version="0.48.4 r9939"
   sodipodi:docname="logo_avvillas.svg"><title
     id="title3039">Banco AV Villas logo</title><sodipodi:namedview
     pagecolor="#ffffff"
     bordercolor="#666666"
     borderopacity="1"
     objecttolerance="10"
     gridtolerance="10"
     guidetolerance="10"
     inkscape:pageopacity="0"
     inkscape:pageshadow="2"
     inkscape:window-width="1600"
     inkscape:window-height="844"
     id="namedview44"
     showgrid="false"
     inkscape:showpageshadow="false"
     inkscape:zoom="1"
     inkscape:cx="122.52133"
     inkscape:cy="29.151759"
     inkscape:window-x="-4"
     inkscape:window-y="-4"
     inkscape:window-maximized="1"
     inkscape:current-layer="svg2" /><metadata
     id="metadata8"><rdf:RDF><cc:Work
         rdf:about=""><dc:format>image/svg+xml</dc:format><dc:type
           rdf:resource="http://purl.org/dc/dcmitype/StillImage" /><dc:title>Banco AV Villas logo</dc:title></cc:Work></rdf:RDF></metadata><defs
     id="defs6"><clipPath
       id="clipPath16"
       clipPathUnits="userSpaceOnUse"><path
         id="path18"
         d="M 0,118 401,118 401,0 0,0 0,118 z"
         inkscape:connector-curvature="0" /></clipPath></defs><g
     transform="matrix(0.60921556,0,0,-0.60776026,-21.606162,51.477607)"
     id="g10"><g
       id="g12"><g
         clip-path="url(#clipPath16)"
         id="g14"><g
           transform="translate(115.0361,61.7075)"
           id="g20"><path
             id="path22"
             style="fill:#003998;fill-opacity:1;fill-rule:nonzero;stroke:none"
             d="M 0,0 C 0.096,0.42 0.092,0.851 -0.012,1.294 -0.117,1.737 -0.363,2.058 -0.752,2.256 -1.12,2.444 -1.583,2.547 -2.141,2.567 -2.698,2.585 -3.532,2.596 -4.644,2.599 L -5.077,2.6 -6.333,-2.903 -5.55,-2.905 c 1.067,-0.003 1.817,0.007 2.251,0.03 0.433,0.022 0.902,0.142 1.408,0.363 0.557,0.244 0.978,0.581 1.265,1.011 C -0.338,-1.071 -0.13,-0.57 0,0 m -0.845,-10.573 c 0.183,0.804 0.172,1.434 -0.036,1.888 -0.208,0.455 -0.597,0.799 -1.165,1.034 -0.344,0.152 -0.844,0.238 -1.501,0.257 -0.657,0.019 -1.542,0.03 -2.653,0.033 l -1.151,0.003 -1.487,-6.517 0.333,0 c 1.623,-0.004 2.747,0.003 3.376,0.026 0.628,0.022 1.297,0.178 2.008,0.468 0.626,0.255 1.126,0.629 1.499,1.124 0.374,0.494 0.633,1.055 0.777,1.684 m 6.391,-0.137 c -0.295,-1.292 -0.788,-2.428 -1.478,-3.406 -0.69,-0.976 -1.503,-1.785 -2.438,-2.423 -1.109,-0.767 -2.26,-1.312 -3.451,-1.635 -1.192,-0.324 -2.649,-0.483 -4.371,-0.479 l -9.937,0.024 5.939,26.013 8.769,-0.021 C 0.402,7.358 1.767,7.282 2.671,7.134 3.578,6.987 4.389,6.679 5.104,6.211 5.88,5.708 6.391,5.037 6.64,4.197 6.886,3.357 6.885,2.39 6.636,1.296 6.346,0.026 5.785,-1.104 4.953,-2.091 4.121,-3.08 3.119,-3.806 1.945,-4.269 L 1.913,-4.41 C 3.37,-4.75 4.44,-5.444 5.125,-6.488 5.81,-7.533 5.95,-8.94 5.546,-10.71"
             inkscape:connector-curvature="0" /></g><g
           transform="translate(133.4854,48.1162)"
           id="g24"><path
             id="path26"
             style="fill:#003998;fill-opacity:1;fill-rule:nonzero;stroke:none"
             d="M 0,0 0.934,4.089 C -0.08,3.986 -0.9,3.897 -1.528,3.824 -2.157,3.749 -2.792,3.603 -3.431,3.383 -3.984,3.197 -4.446,2.915 -4.817,2.538 -5.187,2.16 -5.443,1.657 -5.587,1.028 c -0.21,-0.921 -0.118,-1.553 0.276,-1.897 0.394,-0.345 1.052,-0.519 1.975,-0.521 0.511,-0.002 1.062,0.12 1.651,0.364 C -1.096,-0.782 -0.534,-0.441 0,0 m -0.693,-3.039 c -0.48,-0.348 -0.91,-0.662 -1.291,-0.94 -0.38,-0.28 -0.87,-0.557 -1.467,-0.836 -0.584,-0.268 -1.139,-0.469 -1.665,-0.608 -0.527,-0.139 -1.235,-0.206 -2.123,-0.204 -1.657,0.004 -2.9,0.589 -3.728,1.756 -0.829,1.168 -1.041,2.637 -0.637,4.407 0.333,1.456 0.878,2.631 1.639,3.526 0.76,0.896 1.723,1.604 2.888,2.126 1.178,0.533 2.524,0.903 4.039,1.109 1.515,0.206 3.13,0.366 4.846,0.478 L 1.832,7.88 c 0.248,1.083 0.038,1.833 -0.629,2.248 -0.667,0.414 -1.762,0.624 -3.284,0.627 -0.69,0.002 -1.525,-0.126 -2.508,-0.386 -0.982,-0.261 -1.958,-0.593 -2.93,-0.999 l -0.501,0.001 1.082,4.734 c 0.618,0.175 1.598,0.379 2.943,0.615 1.344,0.235 2.671,0.352 3.982,0.348 3.224,-0.007 5.443,-0.576 6.659,-1.702 1.216,-1.128 1.561,-2.845 1.035,-5.15 l -3.047,-13.348 -5.802,0.014 0.475,2.079 z"
             inkscape:connector-curvature="0" /></g><g
           transform="translate(159.9775,42.9316)"
           id="g28"><path
             id="path30"
             style="fill:#003998;fill-opacity:1;fill-rule:nonzero;stroke:none"
             d="m 0,0 -5.869,0.015 2.221,9.73 c 0.181,0.792 0.331,1.581 0.449,2.368 0.118,0.786 0.136,1.366 0.054,1.739 -0.098,0.443 -0.315,0.761 -0.648,0.955 -0.335,0.192 -0.818,0.29 -1.452,0.292 -0.479,10e-4 -0.983,-0.091 -1.514,-0.278 -0.532,-0.184 -1.122,-0.48 -1.771,-0.886 l -3.174,-13.907 -5.835,0.014 4.478,19.62 5.835,-0.015 -0.494,-2.167 c 1.15,0.849 2.232,1.51 3.247,1.986 1.015,0.475 2.072,0.711 3.173,0.709 1.911,-0.005 3.229,-0.64 3.952,-1.906 0.723,-1.266 0.811,-3.099 0.263,-5.498 L 0,0 z"
             inkscape:connector-curvature="0" /></g><g
           transform="translate(173.3604,42.376)"
           id="g32"><path
             id="path34"
             style="fill:#003998;fill-opacity:1;fill-rule:nonzero;stroke:none"
             d="m 0,0 c -1.545,0.004 -2.912,0.211 -4.103,0.621 -1.19,0.411 -2.161,1.042 -2.912,1.896 -0.739,0.851 -1.223,1.922 -1.452,3.211 -0.229,1.287 -0.143,2.805 0.256,4.552 0.428,1.874 1.075,3.47 1.942,4.784 0.868,1.316 1.881,2.396 3.042,3.245 1.121,0.813 2.355,1.413 3.706,1.8 1.351,0.387 2.71,0.578 4.077,0.575 1.033,-0.002 2.039,-0.13 3.015,-0.382 0.977,-0.253 1.925,-0.655 2.845,-1.204 L 9.22,13.856 8.469,13.858 C 8.289,14.092 8.061,14.349 7.786,14.628 7.511,14.909 7.2,15.166 6.853,15.4 6.486,15.646 6.056,15.854 5.561,16.023 5.065,16.193 4.49,16.279 3.834,16.281 2.345,16.285 1.067,15.743 0.001,14.657 -1.063,13.569 -1.806,12.105 -2.226,10.266 -2.676,8.297 -2.575,6.828 -1.922,5.86 -1.271,4.891 -0.222,4.405 1.222,4.402 1.957,4.4 2.62,4.485 3.216,4.659 3.812,4.832 4.337,5.042 4.793,5.284 5.238,5.528 5.63,5.78 5.967,6.043 6.305,6.304 6.598,6.539 6.846,6.748 L 7.597,6.746 6.4,1.505 C 6.031,1.354 5.605,1.181 5.121,0.983 4.636,0.786 4.152,0.625 3.668,0.498 3.063,0.336 2.504,0.212 1.989,0.126 1.475,0.039 0.812,-0.002 0,0"
             inkscape:connector-curvature="0" /></g><g
           transform="translate(196.5171,52.6152)"
           id="g36"><path
             id="path38"
             style="fill:#003998;fill-opacity:1;fill-rule:nonzero;stroke:none"
             d="M 0,0 C 0.266,1.165 0.396,2.135 0.389,2.91 0.382,3.685 0.271,4.306 0.055,4.772 -0.178,5.263 -0.489,5.604 -0.879,5.797 -1.269,5.99 -1.741,6.087 -2.296,6.089 -2.82,6.09 -3.311,6.007 -3.772,5.839 -4.233,5.671 -4.695,5.349 -5.161,4.873 -5.598,4.418 -6.006,3.796 -6.387,3.005 -6.768,2.213 -7.095,1.217 -7.369,0.018 c -0.274,-1.2 -0.402,-2.169 -0.381,-2.91 0.02,-0.74 0.13,-1.332 0.329,-1.774 0.208,-0.455 0.521,-0.788 0.94,-0.998 0.419,-0.211 0.911,-0.317 1.479,-0.318 0.466,-10e-4 0.965,0.102 1.496,0.31 0.532,0.209 0.99,0.522 1.375,0.941 0.459,0.5 0.857,1.102 1.195,1.806 C -0.597,-2.221 -0.285,-1.246 0,0 m 5.993,0.021 c -0.737,-3.226 -2.159,-5.765 -4.267,-7.62 -2.107,-1.854 -4.701,-2.776 -7.779,-2.769 -3.057,0.008 -5.221,0.941 -6.492,2.804 -1.271,1.862 -1.538,4.405 -0.801,7.631 0.744,3.261 2.174,5.812 4.29,7.655 2.117,1.841 4.704,2.759 7.761,2.752 C 1.772,10.467 3.938,9.532 5.204,7.67 6.468,5.809 6.732,3.259 5.993,0.021"
             inkscape:connector-curvature="0" /></g><g
           transform="translate(227.5703,52.8037)"
           id="g40"><path
             id="path42"
             style="fill:#003998;fill-opacity:1;fill-rule:nonzero;stroke:none"
             d="M 0,0 -0.576,8.583 -5.068,0.013 0,0 z m -16.526,-9.994 14.324,25.993 6.802,-0.016 2.448,-26.034 -6.419,0.016 -0.339,5.314 -7.803,0.019 -2.761,-5.307 -6.252,0.015 z"
             inkscape:connector-curvature="0" /></g><g
           transform="translate(263.7637,68.7109)"
           id="g44"><path
             id="path46"
             style="fill:#003998;fill-opacity:1;fill-rule:nonzero;stroke:none"
             d="m 0,0 -14.475,-25.993 -6.502,0.015 -2.597,26.035 6.469,-0.016 L -15.729,-17.6 -6.302,0.015 0,0 z"
             inkscape:connector-curvature="0" /></g><g
           transform="translate(296.8076,68.6318)"
           id="g48"><path
             id="path50"
             style="fill:#003998;fill-opacity:1;fill-rule:nonzero;stroke:none"
             d="m 0,0 -14.475,-25.993 -6.502,0.015 -2.597,26.035 6.469,-0.016 L -15.729,-17.6 -6.302,0.015 0,0 z"
             inkscape:connector-curvature="0" /></g><g
           transform="translate(303.9551,65.0132)"
           id="g52"><path
             id="path54"
             style="fill:#003998;fill-opacity:1;fill-rule:nonzero;stroke:none"
             d="M 0,0 -6.169,0.015 -5.08,4.785 1.089,4.77 0,0 z m -5.283,-22.414 -5.835,0.015 4.478,19.619 5.835,-0.014 -4.478,-19.62 z"
             inkscape:connector-curvature="0" /></g><g
           transform="translate(308.9746,42.5752)"
           id="g56"><path
             id="path58"
             style="fill:#003998;fill-opacity:1;fill-rule:nonzero;stroke:none"
             d="M 0,0 -5.835,0.014 0.37,27.198 6.205,27.184 0,0 z"
             inkscape:connector-curvature="0" /></g><g
           transform="translate(319.2783,42.5508)"
           id="g60"><path
             id="path62"
             style="fill:#003998;fill-opacity:1;fill-rule:nonzero;stroke:none"
             d="M 0,0 -5.835,0.014 0.37,27.197 6.205,27.184 0,0 z"
             inkscape:connector-curvature="0" /></g><g
           transform="translate(335.2334,47.6338)"
           id="g64"><path
             id="path66"
             style="fill:#003998;fill-opacity:1;fill-rule:nonzero;stroke:none"
             d="M 0,0 0.934,4.088 C -0.08,3.985 -0.9,3.896 -1.528,3.823 -2.157,3.748 -2.792,3.602 -3.431,3.382 -3.984,3.196 -4.446,2.915 -4.817,2.537 c -0.37,-0.378 -0.626,-0.881 -0.77,-1.51 -0.21,-0.921 -0.118,-1.552 0.276,-1.896 0.394,-0.346 1.052,-0.52 1.974,-0.522 0.512,-10e-4 1.063,0.12 1.651,0.365 C -1.096,-0.783 -0.534,-0.441 0,0 m -0.693,-3.039 c -0.48,-0.349 -0.91,-0.663 -1.291,-0.941 -0.38,-0.28 -0.87,-0.557 -1.467,-0.836 -0.584,-0.267 -1.139,-0.469 -1.665,-0.607 -0.528,-0.139 -1.235,-0.207 -2.123,-0.205 -1.657,0.004 -2.9,0.589 -3.729,1.756 -0.828,1.168 -1.04,2.637 -0.636,4.407 0.333,1.456 0.878,2.631 1.639,3.527 0.76,0.895 1.723,1.603 2.888,2.125 1.178,0.533 2.524,0.903 4.039,1.109 1.515,0.206 3.131,0.366 4.847,0.478 l 0.023,0.105 c 0.247,1.083 0.037,1.833 -0.629,2.248 -0.667,0.415 -1.762,0.624 -3.284,0.628 -0.69,10e-4 -1.525,-0.127 -2.508,-0.387 -0.982,-0.261 -1.958,-0.593 -2.93,-0.999 l -0.501,10e-4 1.082,4.735 c 0.618,0.174 1.598,0.378 2.943,0.614 1.344,0.235 2.671,0.352 3.982,0.349 3.224,-0.008 5.443,-0.576 6.659,-1.703 1.216,-1.128 1.561,-2.844 1.035,-5.15 l -3.047,-13.348 -5.802,0.015 0.475,2.079 z"
             inkscape:connector-curvature="0" /></g><g
           transform="translate(349.7637,41.9355)"
           id="g68"><path
             id="path70"
             style="fill:#003998;fill-opacity:1;fill-rule:nonzero;stroke:none"
             d="M 0,0 C -1.378,0.004 -2.646,0.163 -3.801,0.481 -4.958,0.799 -5.888,1.168 -6.593,1.59 L -5.412,6.76 -4.93,6.759 C -4.701,6.537 -4.44,6.292 -4.146,6.022 -3.852,5.754 -3.421,5.474 -2.854,5.182 -2.371,4.911 -1.809,4.681 -1.169,4.486 -0.529,4.293 0.19,4.195 0.99,4.193 1.813,4.191 2.569,4.323 3.258,4.589 3.947,4.855 4.358,5.28 4.491,5.862 4.596,6.316 4.529,6.66 4.293,6.895 4.058,7.128 3.546,7.351 2.762,7.562 2.343,7.68 1.811,7.806 1.163,7.941 0.516,8.077 -0.049,8.233 -0.532,8.409 c -1.359,0.482 -2.3,1.192 -2.824,2.131 -0.526,0.939 -0.614,2.172 -0.265,3.697 0.199,0.873 0.578,1.697 1.139,2.471 0.56,0.773 1.282,1.462 2.164,2.066 0.88,0.592 1.908,1.062 3.083,1.408 1.174,0.347 2.45,0.519 3.829,0.515 1.31,-0.003 2.486,-0.143 3.524,-0.419 1.038,-0.276 1.891,-0.607 2.559,-0.994 l -1.133,-4.961 -0.467,10e-4 c -0.163,0.163 -0.43,0.383 -0.801,0.657 -0.371,0.276 -0.74,0.511 -1.104,0.711 C 8.735,15.927 8.231,16.12 7.66,16.273 7.089,16.426 6.486,16.504 5.854,16.505 5.008,16.507 4.26,16.356 3.607,16.055 2.954,15.754 2.57,15.353 2.456,14.852 2.355,14.408 2.42,14.06 2.65,13.802 2.881,13.546 3.452,13.294 4.363,13.047 4.834,12.918 5.381,12.791 6.003,12.668 6.625,12.543 7.213,12.376 7.766,12.165 9.006,11.708 9.873,11.038 10.368,10.157 10.861,9.276 10.943,8.107 10.61,6.652 10.4,5.731 9.994,4.856 9.393,4.023 8.792,3.191 8.048,2.491 7.161,1.923 6.221,1.308 5.17,0.832 4.01,0.497 2.849,0.163 1.512,-0.004 0,0"
             inkscape:connector-curvature="0" /></g><g
           transform="translate(90.0835,70.5449)"
           id="g72"><path
             id="path74"
             style="fill:#ff0000;fill-opacity:1;fill-rule:nonzero;stroke:none"
             d="m 0,0 c 4.751,-9.61 -2.737,-23.006 -16.725,-29.922 -13.989,-6.917 -29.18,-4.734 -33.931,4.875 -4.751,9.609 2.737,23.006 16.725,29.923 C -19.942,11.792 -4.751,9.609 0,0"
             inkscape:connector-curvature="0" /></g><g
           transform="translate(50.7485,65.4995)"
           id="g76"><path
             id="path78"
             style="fill:#ff0000;fill-opacity:1;fill-rule:nonzero;stroke:none"
             d="m 0,0 c 0,0 17.667,-4.333 18.667,-19.333 1,-0.167 1,0 1,0 1.589,4.605 14.744,32.563 29.833,35.5 0,0 -17.667,1.667 -30.833,-22.833 C 10.092,2.74 0,0 0,0"
             inkscape:connector-curvature="0" /></g><g
           transform="translate(49.832,65.6665)"
           id="g80"><path
             id="path82"
             style="fill:#ffffff;fill-opacity:1;fill-rule:nonzero;stroke:none"
             d="m 0,0 c 0,0 17.667,-4.333 18.667,-19.333 1,-0.167 1,0 1,0 0,0 11,31.833 29.833,35.5 0,0 -17.667,1.666 -30.833,-22.834 C 10.092,2.739 0,0 0,0"
             inkscape:connector-curvature="0" /></g><g
           transform="translate(63.4751,45.5293)"
           id="g84"><path
             id="path86"
             style="fill:#ffffff;fill-opacity:1;fill-rule:nonzero;stroke:none"
             d="m 0,0 c -7.422,0.512 -13.255,3.303 -13.029,6.231 0.225,2.932 6.426,4.89 13.847,4.376 0.124,-0.008 0.244,-0.022 0.367,-0.031 -1.829,0.71 -3.977,1.199 -6.306,1.361 -6.98,0.481 -12.869,-2.121 -13.153,-5.812 -0.286,-3.692 5.142,-7.076 12.121,-7.559 3.514,-0.243 6.749,0.298 9.134,1.364 C 2.018,-0.089 1.022,-0.07 0,0"
             inkscape:connector-curvature="0" /></g></g></g></g></svg>